<?xml version="1.0" encoding="UTF-8" standalone="no"?>
<!-- Created with Inkscape (http://www.inkscape.org/) -->

<svg
   width="39.687504mm"
   height="39.687508mm"
   viewBox="0 0 39.687504 39.687508"
   version="1.1"
   id="svg1"
   xmlns="http://www.w3.org/2000/svg"
   xmlns:svg="http://www.w3.org/2000/svg">
  <defs
     id="defs1" />
  <g
     id="layer1"
     transform="translate(-110.59583,-71.702083)">
    <path
       d="M 148.68018,83.822947 C 144.4035,73.721538 132.76388,69.001666 122.6674,73.280435 c -10.0524,4.322867 -14.76998,15.968161 -10.4933,26.02546 4.27668,10.101405 15.9163,14.777175 26.01279,10.498415 10.09649,-4.27876 14.81406,-15.924067 10.49329,-25.981363 z m -34.52205,3.043695 c -0.4409,1.587952 -1.10224,2.734802 -1.54313,2.646659 -0.4409,-0.132397 -0.4409,-1.499809 0,-3.043694 0.44089,-1.58796 1.10223,-2.73481 1.54313,-2.64666 0.44089,0.13239 0.44089,1.49981 0,3.043695 z m 4.01214,4.631647 c 1.23458,-0.52926 2.73347,0.352945 3.43905,1.940919 0.66134,1.587963 0.22045,3.308327 -0.96989,3.79355 -1.23458,0.529252 -2.73348,-0.352953 -3.43905,-1.940927 -0.7054,-1.54388 -0.26451,-3.264245 0.96989,-3.793542 z m 4.40895,14.909521 c -0.48495,0.61758 -1.93998,0.35294 -3.26266,-0.6176 -1.32268,-0.97036 -1.98403,-2.29369 -1.49908,-2.95536 0.48495,-0.66166 1.93997,-0.35294 3.26266,0.61759 1.32283,1.01463 1.98417,2.33795 1.49908,2.95537 z m 0.66134,-23.467046 c -1.36674,0.926295 -3.08627,0.749815 -3.83579,-0.352944 -0.74952,-1.10276 -0.22044,-2.734803 1.19035,-3.661285 1.36673,-0.926295 3.08626,-0.749815 3.83578,0.352945 0.7496,1.147 0.22059,2.779065 -1.19034,3.661284 z m 3.08626,-8.469299 c -0.0881,-0.661665 1.19034,-1.32333 2.82176,-1.49981 1.63124,-0.176472 2.99816,0.220555 3.04221,0.838145 0.0881,0.661665 -1.19034,1.32333 -2.82176,1.49981 -1.63124,0.17633 -2.99801,-0.176472 -3.04221,-0.838145 z m 2.51317,12.527514 c 1.54314,-0.661672 3.30671,0.04405 3.92397,1.587952 0.66134,1.543885 -0.0441,3.308318 -1.58719,3.92587 -1.54313,0.661665 -3.30671,-0.04405 -3.92396,-1.587952 -0.61729,-1.49981 0.0881,-3.26425 1.58718,-3.92587 z m -1.76358,14.688951 c -0.13232,-1.41148 1.1463,-2.734815 2.90987,-2.911295 1.76358,-0.17648 3.30672,0.83815 3.43906,2.249635 0.13232,1.41147 -1.14629,2.7348 -2.90987,2.91128 -1.76373,0.17647 -3.30686,-0.79392 -3.43906,-2.24962 z m 5.33483,8.20464 c -1.63124,0.17647 -2.95392,0.0882 -2.99816,-0.22056 -0.0441,-0.30871 1.23458,-0.66167 2.86582,-0.83815 1.63124,-0.17647 2.95392,-0.0881 2.99816,0.22056 0,0.30886 -1.27864,0.66166 -2.86582,0.83815 z m 2.99816,-27.701688 c -1.45503,-0.749815 -2.16042,-2.2937 -1.58719,-3.44073 0.57324,-1.14685 2.24853,-1.499809 3.70352,-0.794069 1.45502,0.749807 2.16042,2.293692 1.58718,3.440722 -0.57323,1.14685 -2.24867,1.499809 -3.70351,0.794077 z m 6.34888,21.040928 c -1.19034,1.10278 -2.68942,1.49981 -3.26266,0.83815 -0.61728,-0.66166 -0.13232,-2.07314 1.10224,-3.22017 1.19034,-1.102785 2.68942,-1.499815 3.26266,-0.83815 0.61729,0.70589 0.13233,2.1174 -1.10224,3.22017 z m 1.80778,-9.836751 c -0.66134,1.455737 -2.16042,2.205552 -3.35076,1.676292 -1.19035,-0.529253 -1.63124,-2.16147 -0.9699,-3.617025 0.66134,-1.455735 2.16042,-2.20555 3.35077,-1.67629 1.19034,0.52926 1.63123,2.161475 0.96989,3.617023 z m 2.77756,-6.484305 c -0.74945,0.308713 -1.85168,-0.661665 -2.51302,-2.161475 -0.66134,-1.49981 -0.57324,-2.999619 0.17638,-3.308324 0.74945,-0.30872 1.85169,0.661665 2.51303,2.161474 0.61729,1.49981 0.529,2.99962 -0.17639,3.308325 z m 1.67548,10.674851 c -0.30857,-0.04405 -0.30857,-1.41148 -0.0441,-2.999619 0.2645,-1.587962 0.74945,-2.867217 1.05818,-2.823142 0.30857,0.04405 0.30857,1.41148 0.0441,2.999622 -0.30871,1.632177 -0.74959,2.867357 -1.05818,2.823139 z"
       id="path1"
       style="fill:#fca311;fill-opacity:1;stroke-width:0.0367502" />
  </g>
</svg>
