<?xml version="1.0" encoding="utf-8"?>
<!-- Generator: Adobe Illustrator 20.1.0, SVG Export Plug-In . SVG Version: 6.00 Build 0)  -->
<!DOCTYPE svg PUBLIC "-//W3C//DTD SVG 1.1//EN" "http://www.w3.org/Graphics/SVG/1.1/DTD/svg11.dtd">
<svg version="1.1" id="logo" xmlns="http://www.w3.org/2000/svg" xmlns:xlink="http://www.w3.org/1999/xlink" x="0px" y="0px"
	 viewBox="0 0 121.1 59" style="enable-background:new 0 0 121.1 59;" xml:space="preserve">
<style type="text/css">
	.st0{fill:#FE0009;}
	.st1{fill:#0F2188;}
</style>
<title>アセット 1</title>
<g id="レイヤー_2">
	<g id="レイヤー_1-2">
		<path class="st0" d="M81.9,16.2H63.6L54.4,32h12.2l3-5.3h-6.1l3-5.3h18.4L81.9,16.2z M48.3,42.6h24.4l9.2-15.8h-6.1l-6.1,10.6
			H51.4l-3-5.3l12.1-21.2h-6.1L42.2,32.1L48.3,42.6z M36.1,21.5l3,5.3L48.3,11h-6.1L36.1,21.5z M72.7,0.4L78.8,11H66.6l3-5.3H45.3
			l3-5.3H72.7z"/>
		<polygon class="st1" points="0,50.6 9.2,50.6 9.2,52.5 5.8,52.5 5.8,58.5 3.4,58.5 3.4,52.5 0,52.5 		"/>
		<path class="st1" d="M9.8,53.3c0-2.3,1.3-2.8,3.5-2.8h3.9c2.2,0,3.5,0.5,3.5,2.8v2.3c0,2.3-1.3,2.9-3.5,2.9h-3.9
			c-2.2,0-3.5-0.5-3.5-2.9L9.8,53.3 M12.3,54.9c0,1.1,0.2,1.6,1.4,1.6h3.1c1.1,0,1.4-0.4,1.4-1.6v-0.8c0-1-0.2-1.6-1.5-1.6h-2.8
			c-1.3,0-1.5,0.6-1.5,1.6L12.3,54.9z"/>
		<polygon class="st1" points="24.8,55.7 20.4,50.6 23.4,50.6 26,53.8 28.7,50.6 31.6,50.6 27.2,55.7 27.2,58.5 24.8,58.5 		"/>
		<path class="st1" d="M31.4,53.3c0-2.3,1.3-2.8,3.5-2.8h3.9c2.2,0,3.5,0.5,3.5,2.8v2.3c0,2.3-1.3,2.9-3.5,2.9h-3.9
			c-2.2,0-3.5-0.5-3.5-2.9L31.4,53.3 M33.9,54.9c0,1.1,0.3,1.6,1.4,1.6h3.1c1.2,0,1.4-0.4,1.4-1.6v-0.8c0-1-0.2-1.6-1.5-1.6h-2.8
			c-1.3,0-1.5,0.6-1.5,1.6L33.9,54.9z"/>
		<path class="st1" d="M43.8,50.6h7.3c2.4,0,3.3,0.8,3.3,2.8v2.4c0,2-0.8,2.7-3.3,2.7h-7.3V50.6 M46.2,56.4h4.3c1,0,1.4-0.3,1.4-1.4
			v-1c0-1.1-0.4-1.4-1.4-1.4h-4.3V56.4z"/>
		<path class="st1" d="M58.9,50.6H62l4.3,7.9h-2.7l-0.8-1.4H58l-0.7,1.4h-2.7L58.9,50.6z M58.9,55.4H62l-1.6-3L58.9,55.4z"/>
		<path class="st1" d="M70.9,53.3c0-2.3,1.3-2.8,3.5-2.8H78c2.7,0,3.1,1,3.1,2.5v0.3h-2.3c0-0.8-0.4-0.9-1.2-0.9H75
			c-1.2,0-1.5,0.3-1.5,1.7v1c0,1.3,0.3,1.6,1.5,1.6h2.6c0.6,0,1.3-0.1,1.3-0.9v-0.2h-3v-1.7h5.4v2.2c0,2.3-1.2,2.4-3.9,2.4h-2.9
			c-2.2,0-3.5-0.5-3.5-2.9L70.9,53.3"/>
		<path class="st1" d="M82.9,53.3c0-2.3,1.3-2.8,3.5-2.8h3.9c2.2,0,3.5,0.5,3.5,2.8v2.3c0,2.3-1.3,2.9-3.5,2.9h-3.9
			c-2.2,0-3.5-0.5-3.5-2.9V53.3 M85.3,54.9c0,1.1,0.2,1.6,1.4,1.6h3.1c1.2,0,1.4-0.4,1.4-1.6v-0.8c0-1-0.2-1.6-1.5-1.6h-2.8
			c-1.3,0-1.5,0.6-1.5,1.6L85.3,54.9L85.3,54.9z"/>
		<path class="st1" d="M95.5,55.9h2.4c0,0.8,0.3,0.9,1,0.9h3c0.5,0,1,0,1-0.7s-0.3-0.7-3.4-0.7c-3.6,0-4.1-0.4-4.1-2.4
			c0-1.4,0.1-2.5,3.2-2.5h3.4c2.8,0,3,1,3,2.3v0.3h-2.4c0-0.6-0.1-0.8-1.2-0.8h-2.6c-0.5,0-0.9,0.2-0.9,0.6c0,0.7,0.3,0.7,2.9,0.7
			c3.8,0,4.6,0.2,4.6,2.5c0,2.1-0.7,2.5-3.9,2.5h-2.9c-2.2,0-3.1-0.4-3.1-2.1V55.9"/>
		<polygon class="st1" points="107.4,50.6 116.1,50.6 116.1,52.4 109.8,52.4 109.8,53.7 115.7,53.7 115.7,55.3 109.8,55.3 
			109.8,56.6 116.2,56.6 116.2,58.5 107.4,58.5 		"/>
		<rect x="118.6" y="50.6" class="st1" width="2.4" height="7.9"/>
	</g>
</g>
</svg>
